<svg clip-rule="evenodd" fill-rule="evenodd" stroke-linejoin="round" stroke-miterlimit="2" viewBox="0 0 1492 1400" xmlns="http://www.w3.org/2000/svg"><path d="m1437.13 1157.92-.141.015 1.208 204.941-197.864-184.299-1196.58 125.608v-885.354s-.015-156.238 90.874-226.388c90.888-70.147 190.398-72.032 190.398-72.032s62.238-2.919 112.509 40.235c21.698 18.627 31.1 28.564 34.794 33.858-.189 3.67-.177 5.878-.177 5.878s5.043 1.092.177-5.878c.957-18.602 7.17-75.532 47.423-81.52 48.194-7.173 164.437-12.925 164.437-12.925l60.581 76.043s54.085-94.631 77.889-99.252c23.804-4.625 147.127-15.447 147.127-15.447s48.769 2.486 43.274 73.525c-.521 6.706-1.146 11.618-1.696 14.983-2.295 7.146-1.376 8.39 0 0 6.535-20.35 39.17-88.574 161.801-118.531 182.965-44.692 254.497 118.055 263.965 167.455 9.464 49.404 0 959.085 0 959.085z"/><path d="m453.125 190.625h50v46.875h-50z"/><g fill-rule="nonzero"><path d="m284.575 864.348c-34.89 3.662-66.71-1.898-95.462-16.682-28.752-14.783-51.85-35.986-69.295-63.608-17.445-27.623-26.167-59.236-26.167-94.839l.969-307.908c0-35.603 8.561-68.869 25.683-99.796s40.22-56.656 69.295-77.186c29.074-20.53 60.733-32.592 94.977-36.187 34.89-3.662 66.549 1.753 94.977 16.247 28.429 14.494 51.204 35.407 68.326 62.739 17.122 27.333 25.683 58.801 25.683 94.404l.969 307.705c0 35.603-8.561 69.031-25.683 100.281-17.122 31.251-40.058 57.287-68.81 78.107-28.752 20.819-60.572 33.061-95.462 36.723zm0-117.491c19.383-2.035 36.343-11.745 50.881-29.13 14.537-17.386 21.806-36.113 21.806-56.18l-.969-307.705c0-21.362-6.784-38.775-20.353-52.239-13.568-13.464-30.69-19.111-51.365-16.941-20.029 2.102-37.151 11.182-51.365 27.239-14.215 16.057-21.322 35.091-21.322 57.1v307.806c0 21.362 7.107 38.903 21.322 52.624 14.214 13.72 31.336 19.529 51.365 17.426z" fill="#fff"/><path d="m532.679 828.594c-2.584.271-3.876-1.212-3.876-4.448l1.938-667.28c0-2.589 1.292-4.019 3.877-4.291l118.237-12.411c2.584-.272 4.845.786 6.784 3.171l88.193 118.914 88.193-137.429c1.939-2.793 4.2-4.325 6.784-4.597l119.207-12.513c2.584-.271 3.876.888 3.876 3.477l1.939 666.873c0 3.236-1.292 4.99-3.877 5.262l-109.515 11.496c-2.584.271-3.876-1.212-3.876-4.448l-.969-495.108-101.762 158.274-100.792-137.011-.969 495.311c0 3.236-1.293 4.99-3.877 5.262z" fill="#fff"/><path d="m1207.21 767.496c-34.89 3.662-66.549-1.753-94.978-16.247-28.428-14.494-51.204-35.569-68.325-63.225-17.122-27.656-25.683-59.61-25.683-95.86v-307.807c0-34.956 8.561-68.059 25.683-99.31 17.121-31.251 40.058-57.125 68.81-77.621 28.751-20.496 60.249-32.541 94.493-36.136 35.535-3.73 67.679 1.473 96.431 15.609 28.751 14.136 51.527 34.887 68.325 62.254 16.799 27.366 25.198 59.175 25.198 95.426v44.665c0 2.59-1.615 4.054-4.845 4.393l-108.546 11.394c-2.584.272-3.877-.887-3.877-3.477v-36.898c0-24.598-6.945-44.26-20.837-58.985-13.891-14.725-31.174-21.003-51.849-18.832-18.738 1.967-35.375 11.481-49.912 28.543s-21.806 35.95-21.806 56.665v307.807c0 21.362 7.107 38.903 21.321 52.623 14.215 13.72 31.013 19.563 50.397 17.528 20.675-2.17 37.958-11.429 51.849-27.776 13.892-16.347 20.837-35.525 20.837-57.534v-47.579l-67.841 7.122c-3.23.339-4.845-1.11-4.845-4.347v-108.752c0-3.236 1.615-5.024 4.845-5.363l181.233-19.025c2.584-.271 3.876 1.212 3.876 4.448v161.186c0 36.251-8.561 70.001-25.682 101.252-17.122 31.251-39.897 57.108-68.326 77.57s-60.411 32.559-95.946 36.289z" fill="#fff"/><g fill="#efb400"><path d="m258.901 928.717v211.737c0 8.95-1.595 17.365-4.786 25.244-3.19 7.878-7.721 15.067-13.591 21.564-5.871 6.498-12.635 11.811-20.292 15.939-7.657 4.129-15.824 6.648-24.502 7.559s-16.782.1-24.312-2.434c-7.529-2.534-14.229-6.434-20.099-11.699-5.871-5.266-10.465-11.496-13.783-18.692-3.318-7.195-4.977-15.268-4.977-24.218v-211.738l39.051-4.099v207.902c0 9.717 2.297 16.636 6.891 20.757 4.594 4.12 10.337 5.819 17.229 5.096 6.891-.724 12.634-3.628 17.228-8.713 4.594-5.086 6.892-12.487 6.892-22.204v-207.902z"/><path d="m360.74 1191.14v-273.111l57.045-5.988c12.507-1.313 23.163-.513 31.969 2.398 8.805 2.912 16.016 7.269 21.631 13.073 5.615 5.803 9.635 12.733 12.06 20.79 2.425 8.056 3.637 16.559 3.637 25.51v9.973c0 7.416-.574 13.741-1.723 18.976-1.148 5.235-2.871 9.891-5.168 13.968-4.339 7.616-10.975 14.45-19.909 20.502 9.189 3.383 15.953 9.066 20.292 17.049s6.508 19.263 6.508 33.839v15.343c0 24.038-5.806 43.06-17.42 57.065-11.613 14.005-30.181 22.347-55.705 25.027zm39.051-130.682v87.457l16.846-1.768c7.912-.831 14.102-2.631 18.568-5.402 4.467-2.77 7.849-6.321 10.146-10.654s3.701-9.339 4.211-15.018c.511-5.68.766-11.844.766-18.493 0-6.904-.383-12.873-1.148-17.907-.766-5.035-2.298-9.221-4.595-12.56-2.552-3.312-5.998-5.572-10.337-6.778-4.339-1.207-10.082-1.435-17.228-.685zm0-109.704v75.182l17.612-1.849c13.017-1.366 21.759-5.544 26.225-12.534 4.467-6.99 6.7-16.75 6.7-29.28 0-12.275-2.488-21.22-7.466-26.834-4.977-5.615-13.974-7.739-26.991-6.373z"/><path d="m715.264 880.811v211.737c0 8.951-1.596 17.365-4.786 25.244-3.191 7.878-7.721 15.067-13.591 21.565-5.871 6.497-12.635 11.81-20.292 15.939-7.657 4.128-15.824 6.647-24.502 7.558s-16.782.1-24.312-2.434c-7.529-2.534-14.229-6.434-20.1-11.699-5.87-5.266-10.464-11.496-13.782-18.692-3.318-7.195-4.977-15.268-4.977-24.218v-211.738l39.051-4.099v207.902c0 9.717 2.297 16.636 6.891 20.757s10.337 5.819 17.229 5.096c6.891-.724 12.634-3.628 17.228-8.713s6.891-12.487 6.891-22.204v-207.902z"/><path d="m815.572 1143.39v-273.111l37.519-3.938 58.96 158.367.766-.08v-164.557l39.051-4.099v273.11l-36.754 3.859-59.726-157.904-.765.08v164.174z"/><path d="m1077.83 1115.86v-236.287l-45.177 4.743v-36.824l129.405-13.584v36.824l-45.177 4.742v236.287z"/><path d="m1370.71 812.007v211.737c0 8.95-1.595 17.365-4.786 25.243-3.19 7.879-7.721 15.067-13.591 21.565s-12.634 11.811-20.291 15.939-15.825 6.648-24.503 7.559-16.782.099-24.311-2.435c-7.53-2.534-14.23-6.433-20.1-11.699-5.871-5.265-10.465-11.495-13.783-18.691-3.318-7.195-4.977-15.268-4.977-24.218v-211.738l39.051-4.099v207.901c0 9.718 2.297 16.637 6.891 20.758 4.595 4.12 10.338 5.819 17.229 5.096 6.891-.724 12.634-3.628 17.228-8.713 4.595-5.086 6.892-12.487 6.892-22.204v-207.902z"/></g></g></svg>